# File created by Blade
# Date/Time:  Tue Apr 07 21:33:03 2015
# Frame Rate: 120.000 fps
#------------------------------------------------------
:FULLY-SPECIFIED
:DEGREES
1184
root -1.572055 32.988046 -4.592516 13.657542 -0.977664 -2.240435
Spine -14.744876 -6.681041 2.621697
Head 11.232333 -0.901913 -2.903852
LeftShoulder -22.066758 40.137433 18.245183
LeftArm 57.633486 -51.750192 -57.170987
LeftForeArm 6.691346 -0.000000 -1.321167
LeftHand 5.080686 -0.000000 7.212069
LeftHandThumb1 -26.253704 0.000000 33.147579
RightShoulder -6.983296 3.155324 -29.531725
RightArm 12.219990 14.286274 43.475111
RightForeArm -12.238065 -0.000000 2.035591
RightHand 2.982738 -0.000000 -2.585276
RightHandThumb1 -24.326973 -0.000000 -32.862282
LeftUpLeg -4.519083 -8.976886 2.692377
LeftLeg -6.738521 -0.000000 0.000000
LeftFoot -7.240810 16.906969 -20.316244
LeftToeBase -4.264082 -0.000000 0.000000
RightUpLeg -7.547381 -1.234125 4.113766
RightLeg -2.341472 -0.000000 0.000000
RightFoot -5.379588 -10.386532 5.933645
RightToeBase -1.160841 -0.000000 0.000000
1185
root -1.564936 32.992202 -4.597150 13.616492 -0.906154 -2.246000
Spine -14.736466 -6.681254 2.689709
Head 11.290441 -0.900958 -2.970099
LeftShoulder -22.029206 40.261511 18.050898
LeftArm 58.245570 -51.258949 -58.383360
LeftForeArm 6.172491 -0.000000 -1.187528
LeftHand 5.168761 -0.000000 6.857959
LeftHandThumb1 -26.253704 0.000000 33.147579
RightShoulder -6.969696 2.984247 -29.376806
RightArm 12.230384 13.791005 43.825138
RightForeArm -11.997617 -0.000000 2.335178
RightHand 3.130287 -0.000000 -2.899272
RightHandThumb1 -24.326973 -0.000000 -32.862282
LeftUpLeg -4.529537 -8.907805 2.683254
LeftLeg -6.678193 -0.000000 0.000000
LeftFoot -7.164678 16.761101 -20.379180
LeftToeBase -4.398539 -0.000000 0.000000
RightUpLeg -7.506278 -1.214304 4.104381
RightLeg -2.362583 -0.000000 0.000000
RightFoot -5.322182 -10.459057 5.959974
RightToeBase -1.173832 -0.000000 0.000000
1186
root -1.558230 32.996108 -4.600483 13.587882 -0.843392 -2.245156
Spine -14.752942 -6.642034 2.749817
Head 11.359834 -0.911706 -3.064504
LeftShoulder -21.952163 40.330802 17.823358
LeftArm 58.833462 -50.693440 -59.494811
LeftForeArm 5.608296 -0.000000 -1.217025
LeftHand 5.301489 0.000000 6.935513
LeftHandThumb1 -26.253704 0.000000 33.147579
RightShoulder -6.976089 2.668283 -29.199775
RightArm 12.323291 13.388580 44.264678
RightForeArm -11.819276 -0.000000 2.640812
RightHand 3.292689 -0.000000 -3.424930
RightHandThumb1 -24.326973 -0.000000 -32.862282
LeftUpLeg -4.530101 -8.882357 2.674388
LeftLeg -6.650486 -0.000000 0.000000
LeftFoot -7.120960 16.681225 -20.392807
LeftToeBase -4.318540 -0.000000 0.000000
RightUpLeg -7.476060 -1.181322 4.086840
RightLeg -2.382587 -0.000000 0.000000
RightFoot -5.274730 -10.525071 5.996828
RightToeBase -1.150558 -0.000000 0.000000
1187
root -1.552332 32.999967 -4.605467 13.559846 -0.775321 -2.247415
Spine -14.769506 -6.628731 2.810730
Head 11.435422 -0.907383 -3.121852
LeftShoulder -21.951879 40.429416 17.498361
LeftArm 59.549376 -50.144923 -60.759638
LeftForeArm 5.377266 0.000000 -1.108571
LeftHand 5.188686 -0.000000 6.549528
LeftHandThumb1 -26.253704 0.000000 33.147579
RightShoulder -6.958018 2.343079 -29.026879
RightArm 12.379732 12.916288 44.791308
RightForeArm -11.552440 -0.000000 2.996079
RightHand 3.286939 -0.000000 -4.000403
RightHandThumb1 -24.326973 -0.000000 -32.862282
LeftUpLeg -4.552575 -8.780333 2.656601
LeftLeg -6.575429 -0.000000 0.000000
LeftFoot -7.074465 16.536672 -20.279267
LeftToeBase -4.280031 -0.000000 0.000000
RightUpLeg -7.456043 -1.147743 4.076791
RightLeg -2.390539 -0.000000 0.000000
RightFoot -5.217129 -10.612418 5.978882
RightToeBase -1.195598 -0.000000 0.000000
1188
root -1.548242 33.002132 -4.607686 13.521614 -0.679654 -2.263130
Spine -14.788023 -6.639630 2.902692
Head 11.525774 -1.067417 -3.167174
LeftShoulder -21.874145 40.430328 17.196164
LeftArm 59.854340 -49.435054 -61.615025
LeftForeArm 5.075908 -0.000000 -1.035915
LeftHand 5.151131 -0.000000 6.164088
LeftHandThumb1 -26.253704 0.000000 33.147579
RightShoulder -6.916201 1.901950 -28.825675
RightArm 12.492337 12.651888 45.374283
RightForeArm -10.966110 -0.000000 3.348508
RightHand 3.715329 -0.000000 -4.061131
RightHandThumb1 -24.326973 -0.000000 -32.862282
LeftUpLeg -4.531460 -8.792193 2.675208
LeftLeg -6.575297 -0.000000 0.000000
LeftFoot -7.028514 16.476149 -20.267587
LeftToeBase -4.292198 -0.000000 0.000000
RightUpLeg -7.393899 -1.094193 4.083679
RightLeg -2.453686 -0.000000 0.000000
RightFoot -5.134648 -10.747548 5.973685
RightToeBase -1.264562 -0.000000 0.000000
1189
root -1.540753 33.004224 -4.607884 13.478054 -0.571554 -2.230877
Spine -14.807761 -6.689410 2.950935
Head 11.609194 -1.060032 -3.233807
LeftShoulder -21.878694 40.514818 16.774869
LeftArm 60.271518 -48.732179 -62.526183
LeftForeArm 4.753243 -0.000000 -0.983441
LeftHand 5.096466 -0.000000 5.852590
LeftHandThumb1 -26.253704 0.000000 33.147579
RightShoulder -6.873562 1.556747 -28.622693
RightArm 12.567621 12.398541 46.050339
RightForeArm -10.476795 -0.000000 3.669929
RightHand 4.111873 -0.000000 -4.409411
RightHandThumb1 -24.326973 -0.000000 -32.862282
LeftUpLeg -4.586088 -8.570356 2.613585
LeftLeg -6.399531 -0.000000 0.000000
LeftFoot -6.957047 16.088051 -20.308494
LeftToeBase -4.409477 -0.000000 0.000000
RightUpLeg -7.345942 -1.130395 4.051335
RightLeg -2.467040 -0.000000 0.000000
RightFoot -5.117671 -10.819927 5.972229
RightToeBase -1.260162 -0.000000 0.000000
1190
root -1.534960 33.006080 -4.613532 13.457994 -0.527535 -2.209397
Spine -14.820622 -6.672849 2.969041
Head 11.624194 -0.917504 -3.284902
LeftShoulder -21.902531 40.634139 16.331717
LeftArm 60.566354 -47.906319 -63.282396
LeftForeArm 4.464444 -0.000000 -0.904524
LeftHand 5.051122 -0.000000 5.759757
LeftHandThumb1 -26.253704 0.000000 33.147579
RightShoulder -6.868412 1.159838 -28.301762
RightArm 12.752741 12.306537 46.727911
RightForeArm -9.875601 -0.000000 3.923564
RightHand 4.619126 -0.000000 -4.823707
RightHandThumb1 -24.326973 -0.000000 -32.862282
LeftUpLeg -4.646696 -8.359364 2.562360
LeftLeg -6.262695 -0.000000 0.000000
LeftFoot -6.935359 15.810312 -20.316842
LeftToeBase -4.425070 -0.000000 0.000000
RightUpLeg -7.325025 -1.048267 4.011284
RightLeg -2.493003 -0.000000 0.000000
RightFoot -5.086422 -10.939200 5.957183
RightToeBase -1.263776 -0.000000 0.000000
1191
root -1.530293 33.006959 -4.617195 13.440580 -0.449641 -2.179161
Spine -14.855092 -6.696634 3.000157
Head 11.657149 -0.861550 -3.343913
LeftShoulder -21.881469 40.748331 15.881881
LeftArm 60.682471 -47.033999 -63.912609
LeftForeArm 4.276071 0.000000 -0.780379
LeftHand 5.092404 -0.000000 5.593871
LeftHandThumb1 -26.253704 0.000000 33.147579
RightShoulder -6.854800 0.857422 -27.977019
RightArm 12.865016 12.128400 47.433171
RightForeArm -9.309557 0.000000 4.217747
RightHand 5.336135 0.000000 -5.159949
RightHandThumb1 -24.326973 -0.000000 -32.862282
LeftUpLeg -4.660096 -8.343631 2.530064
LeftLeg -6.229352 -0.000000 0.000000
LeftFoot -6.898874 15.740349 -20.215652
LeftToeBase -4.372047 -0.000000 0.000000
RightUpLeg -7.319310 -1.055502 3.982513
RightLeg -2.483100 -0.000000 0.000000
RightFoot -5.081842 -11.012158 5.947074
RightToeBase -1.276078 -0.000000 0.000000
1192
root -1.527086 33.006511 -4.622216 13.418279 -0.361110 -2.178717
Spine -14.877545 -6.734663 3.062206
Head 11.670540 -0.837368 -3.386671
LeftShoulder -21.901532 40.962931 15.346419
LeftArm 60.862922 -46.154979 -64.559691
LeftForeArm 4.165195 0.000000 -0.646614
LeftHand 5.104621 -0.000000 5.273204
LeftHandThumb1 -26.253704 0.000000 33.147579
RightShoulder -6.801421 0.680540 -27.698708
RightArm 12.849200 12.076240 48.273700
RightForeArm -8.926307 0.000000 4.513676
RightHand 5.502721 -0.000000 -4.993459
RightHandThumb1 -24.326973 -0.000000 -32.862282
LeftUpLeg -4.657886 -8.357984 2.532515
LeftLeg -6.231055 -0.000000 0.000000
LeftFoot -6.880923 15.691751 -20.212838
LeftToeBase -4.347709 -0.000000 0.000000
RightUpLeg -7.306228 -1.067334 3.984612
RightLeg -2.478934 -0.000000 0.000000
RightFoot -5.065720 -11.072207 5.932288
RightToeBase -1.312812 -0.000000 0.000000
1193
root -1.524168 33.004516 -4.625779 13.406998 -0.280267 -2.168833
Spine -14.914197 -6.782550 3.117282
Head 11.691495 -0.818398 -3.434247
LeftShoulder -21.932480 41.200228 14.774670
LeftArm 60.924648 -45.193677 -65.036674
LeftForeArm 4.040982 -0.000000 -0.539461
LeftHand 4.991938 -0.000000 5.090776
LeftHandThumb1 -26.253704 0.000000 33.147579
RightShoulder -6.778133 0.568119 -27.385817
RightArm 12.810329 11.919887 49.128054
RightForeArm -8.696138 -0.000000 4.921705
RightHand 5.437655 -0.000000 -4.995284
RightHandThumb1 -24.326973 -0.000000 -32.862282
LeftUpLeg -4.684951 -8.295264 2.522214
LeftLeg -6.186874 -0.000000 0.000000
LeftFoot -6.853400 15.528360 -20.304996
LeftToeBase -4.499666 -0.000000 0.000000
RightUpLeg -7.287380 -1.056706 3.974869
RightLeg -2.502528 -0.000000 0.000000
RightFoot -5.080235 -11.159056 5.929070
RightToeBase -1.229391 -0.000000 0.000000
1194
root -1.521830 33.001698 -4.629295 13.404444 -0.214202 -2.153281
Spine -14.948940 -6.820612 3.143457
Head 11.655327 -0.776837 -3.408619
LeftShoulder -22.008424 41.482112 14.172134
LeftArm 60.966304 -44.156169 -65.480942
LeftForeArm 3.873448 -0.000000 -0.392453
LeftHand 5.101466 -0.000000 4.832485
LeftHandThumb1 -26.253704 0.000000 33.147579
RightShoulder -6.743735 0.497870 -27.093554
RightArm 12.685211 11.791159 50.062225
RightForeArm -8.318289 -0.000000 5.321502
RightHand 5.569171 -0.000000 -5.034219
RightHandThumb1 -24.326973 -0.000000 -32.862282
LeftUpLeg -4.712836 -8.243774 2.506946
LeftLeg -6.151788 -0.000000 0.000000
LeftFoot -6.836518 15.400179 -20.293684
LeftToeBase -4.573779 -0.000000 0.000000
RightUpLeg -7.291189 -1.074003 3.965064
RightLeg -2.497257 -0.000000 0.000000
RightFoot -5.097529 -11.213884 5.886975
RightToeBase -1.271754 -0.000000 0.000000
